<svg version="1.1" id="Layer_1" xmlns="http://www.w3.org/2000/svg" xmlns:xlink="http://www.w3.org/1999/xlink" x="0px" y="0px"
	 width="100%" viewBox="0 0 717 265" enable-background="new 0 0 717 265" xml:space="preserve">
<path fill="#FFFFFF" opacity="1.000000" stroke="none" 
	d="
M495.000000,266.000000 
	C331.500031,266.000000 168.500061,265.985016 5.500179,266.093872 
	C1.751073,266.096375 0.899387,265.250275 0.904810,261.499969 
	C1.028440,176.000183 1.026251,90.500122 0.904120,5.000317 
	C0.899229,1.576432 1.575953,0.904206 4.999860,0.905711 
	C241.333084,1.009575 477.666351,1.009565 713.999573,0.905785 
	C717.422363,0.904281 718.100830,1.574769 718.095947,4.999784 
	C717.973755,90.666252 717.973816,176.332962 718.095825,261.999451 
	C718.100708,265.422791 717.425659,266.102356 714.000244,266.096375 
	C641.166992,265.969208 568.333496,266.000000 495.000000,266.000000 
z"/>
<path fill="#171717" opacity="1.000000" stroke="none" 
	d="
M482.495300,149.999329 
	C482.494080,155.328842 482.481201,160.158615 482.497650,164.988281 
	C482.503998,166.859726 482.782776,168.664276 479.850220,168.615967 
	C477.300812,168.573959 477.317505,167.075104 477.317871,165.331680 
	C477.322052,144.513916 477.318359,123.696144 477.341156,102.878403 
	C477.342529,101.626465 476.834961,99.969315 478.619019,99.522346 
	C480.306335,99.099602 481.731506,99.531410 482.949982,101.124184 
	C488.706451,108.648766 494.598267,116.069794 500.441040,123.528374 
	C509.415558,134.984772 518.389465,146.441666 528.337097,159.141144 
	C528.337097,154.816055 528.337646,151.930374 528.337036,149.044693 
	C528.333740,133.889313 528.316895,118.733910 528.343750,103.578583 
	C528.347046,101.723259 527.596436,99.397499 530.941467,99.370934 
	C534.379089,99.343628 533.468384,101.746536 533.471069,103.550407 
	C533.501038,123.701973 533.515137,143.853729 533.422791,164.004929 
	C533.415710,165.553711 534.718628,167.904709 531.870056,168.542221 
	C529.723145,169.022690 528.614441,167.612137 527.419861,166.085114 
	C513.389221,148.149567 499.303894,130.256744 485.228882,112.355888 
	C484.729004,111.720123 484.186707,111.117714 482.495331,110.554939 
	C482.495331,123.536476 482.495331,136.518021 482.495300,149.999329 
z"/>
<path fill="#191919" opacity="1.000000" stroke="none" 
	d="
M589.093872,103.671143 
	C585.620667,103.765915 582.663330,104.115677 579.836487,105.251930 
	C574.117371,107.550728 570.967407,111.821060 570.979919,117.299896 
	C570.991455,122.373703 574.136292,126.831589 579.755371,128.768539 
	C584.759277,130.493423 589.968689,131.614288 595.056213,133.107925 
	C597.753723,133.899902 600.451416,134.762100 603.033203,135.864014 
	C609.640137,138.683823 614.079651,143.153473 613.944641,150.926407 
	C613.824829,157.822906 609.420288,164.255722 602.167786,166.734146 
	C589.755981,170.975677 577.927185,169.340118 566.990112,162.012634 
	C565.415466,160.957657 563.382751,159.815933 565.414734,157.380280 
	C567.652466,154.698044 568.506531,157.814087 569.630920,158.550797 
	C579.347717,164.917023 589.833923,165.948898 600.620056,162.550522 
	C605.671021,160.959122 608.792114,156.771317 608.967712,151.193314 
	C609.141357,145.674927 605.806274,142.296921 601.170837,140.051285 
	C594.532654,136.835388 587.144287,136.136459 580.190308,133.958694 
	C570.510681,130.927338 565.877869,125.543602 566.046387,117.162598 
	C566.196472,109.690933 570.016907,104.387344 576.667480,101.662010 
	C587.443176,97.246262 598.130249,98.262100 608.388489,103.736145 
	C609.786011,104.481903 611.415100,104.847664 610.184814,107.320091 
	C608.743835,110.216034 607.464539,108.108932 606.320496,107.500526 
	C601.060242,104.703049 595.462769,103.540306 589.093872,103.671143 
z"/>
<path fill="#181818" opacity="1.000000" stroke="none" 
	d="
M221.366119,118.591736 
	C224.053925,122.195023 226.515381,125.518631 229.247650,129.207916 
	C236.083588,119.974716 242.772079,111.181915 249.153366,102.171524 
	C251.017822,99.538910 252.915817,98.883263 256.359497,99.954033 
	C249.782715,108.892250 243.425461,117.531265 237.069580,126.171295 
	C236.282288,127.241516 235.646271,128.471939 234.691010,129.360168 
	C232.202240,131.674225 232.715332,133.644882 234.617783,136.160065 
	C242.509857,146.593979 250.214203,157.169907 258.151184,167.915314 
	C254.470184,169.506668 252.341522,168.182632 250.387161,165.458145 
	C244.579895,157.362534 238.620743,149.375854 232.717911,141.348846 
	C229.092041,136.418182 229.092346,136.422089 225.591583,141.189011 
	C219.689590,149.225677 213.713974,157.209671 207.918167,165.322159 
	C205.962296,168.059845 203.798462,169.435547 199.954834,168.061935 
	C207.952393,157.303574 215.747116,146.627487 223.789413,136.141281 
	C225.664658,133.696213 225.557449,132.191483 223.746948,129.795624 
	C216.367355,120.030182 209.233994,110.078644 201.848145,99.974396 
	C205.641174,98.510612 207.796692,99.859528 209.705185,102.592361 
	C213.414383,107.903725 217.317184,113.079887 221.366119,118.591736 
z"/>
<path fill="#131313" opacity="1.000000" stroke="none" 
	d="
M131.144012,123.868912 
	C130.771225,110.966957 124.035614,104.425072 110.786346,104.025764 
	C102.962639,103.789978 95.126175,103.994202 87.295700,103.952263 
	C85.800804,103.944260 83.919060,104.644730 83.967964,101.767105 
	C84.014091,99.052635 85.720490,99.392174 87.331429,99.447342 
	C96.475143,99.760475 105.630325,98.911568 114.773247,99.999580 
	C127.946815,101.567245 135.917160,109.736244 136.314270,122.404007 
	C136.687302,134.303864 129.604950,142.487503 116.882500,145.044434 
	C108.780144,146.672821 100.605019,145.815002 92.464821,145.887527 
	C89.613228,145.912933 88.797455,146.712906 88.909264,149.512543 
	C89.121857,154.835556 88.933037,160.173538 88.988655,165.504486 
	C89.007851,167.344940 88.943092,168.652466 86.435638,168.645584 
	C83.773201,168.638306 84.031181,167.043518 84.032700,165.358276 
	C84.039009,158.360626 84.164970,151.359299 83.968193,144.367157 
	C83.889626,141.575424 84.956184,141.091370 87.441315,141.121918 
	C95.769646,141.224304 104.108665,141.316467 112.428856,141.011200 
	C123.643768,140.599747 130.165771,134.588074 131.144012,123.868912 
z"/>
<path fill="#161616" opacity="1.000000" stroke="none" 
	d="
M326.773010,148.998444 
	C326.771057,133.529984 326.738647,118.561188 326.809509,103.592880 
	C326.817444,101.913025 325.632812,99.371162 329.217102,99.379707 
	C332.591431,99.387749 331.811951,101.677750 331.814453,103.521042 
	C331.839325,121.982346 331.952026,140.445206 331.729126,158.903854 
	C331.681091,162.882233 332.382812,164.304474 336.745667,164.144775 
	C347.043610,163.767761 357.365021,163.985001 367.676086,164.068130 
	C369.032471,164.079071 371.150299,162.980957 371.316376,165.930145 
	C371.481537,168.862991 369.659576,168.594742 367.761993,168.592270 
	C355.288300,168.576065 342.813385,168.497986 330.341858,168.665329 
	C327.400391,168.704788 326.648682,167.688522 326.732910,164.964279 
	C326.892242,159.813461 326.775177,154.654083 326.773010,148.998444 
z"/>
<path fill="#0E0E0E" opacity="1.000000" stroke="none" 
	d="
M171.950027,106.171944 
	C171.949203,125.751671 171.976288,144.854782 171.900284,163.957504 
	C171.893188,165.742859 173.226501,168.553589 169.294296,168.405441 
	C165.640427,168.267761 167.125076,165.634537 167.116959,164.065094 
	C167.016510,144.630341 166.962250,125.194023 167.168640,105.761009 
	C167.189835,103.765274 164.855011,99.774780 169.466995,99.727203 
	C174.155838,99.678841 170.988556,103.723938 171.950027,106.171944 
z"/>
<path fill="#111111" opacity="1.000000" stroke="none" 
	d="
M288.956665,163.694977 
	C288.524261,165.747391 290.295807,168.332550 286.630737,168.419601 
	C283.086151,168.503784 284.115845,166.089417 284.111938,164.357529 
	C284.066223,144.091064 284.068909,123.824471 284.104187,103.557983 
	C284.107269,101.778740 283.202209,99.434387 286.716125,99.562416 
	C289.979126,99.681305 288.911499,101.893814 288.916077,103.432289 
	C288.975281,123.366409 288.960022,143.300751 288.956665,163.694977 
z"/>
<path fill="#212121" opacity="1.000000" stroke="none" 
	d="
M398.056793,103.043655 
	C397.727570,100.375046 398.346710,99.308609 400.929840,99.331230 
	C413.761627,99.443588 426.595093,99.372917 439.427948,99.365784 
	C440.956512,99.364929 442.513092,99.219048 442.565369,101.500839 
	C442.600555,103.036186 442.382690,104.057121 440.479736,104.013153 
	C426.356262,103.686882 412.217468,104.629074 398.056793,103.043655 
z"/>
<path fill="#222222" opacity="1.000000" stroke="none" 
	d="
M398.012207,133.049515 
	C398.293365,130.494995 399.953735,131.163300 401.117554,131.159409 
	C413.731140,131.117172 426.344971,131.135605 438.958710,131.136566 
	C440.773499,131.136703 442.740906,130.751846 442.605865,133.706924 
	C442.482727,136.401459 440.600372,135.848511 439.041931,135.851639 
	C426.428253,135.876984 413.814484,135.866180 401.200745,135.877151 
	C399.526672,135.878601 397.689850,136.160324 398.012207,133.049515 
z"/>
<path fill="#212121" opacity="1.000000" stroke="none" 
	d="
M433.898438,168.622787 
	C422.754333,168.617706 412.094696,168.591003 401.435211,168.627274 
	C399.487823,168.633896 397.831055,168.815994 397.956482,165.936325 
	C398.088196,162.912201 400.222046,164.058212 401.546051,164.049225 
	C414.037201,163.964310 426.529266,163.975494 439.020782,164.028870 
	C440.462616,164.035034 442.527039,163.177567 442.594788,166.050476 
	C442.664185,168.991455 440.703552,168.619949 438.879974,168.621384 
	C437.380951,168.622559 435.881958,168.622375 433.898438,168.622787 
z"/>
</svg>